<?xml version="1.0" encoding="utf-8"?>
<!-- Generator: Adobe Illustrator 21.0.0, SVG Export Plug-In . SVG Version: 6.00 Build 0)  -->
<svg version="1.1" id="Layer_1" xmlns="http://www.w3.org/2000/svg" xmlns:xlink="http://www.w3.org/1999/xlink" x="0px" y="0px"
	 viewBox="0 0 203 50" style="enable-background:new 0 0 203 50;" xml:space="preserve">
<style type="text/css">
	.st0{fill:#303D4A;}
	.st1{fill:#F6921E;}
	.st2{fill:#FFFFFF;}
</style>
<title>gt_cherkassy_logo</title>
<desc>Created with Sketch.</desc>
<g id="Symbols">
	<g id="Header" transform="translate(-375.000000, -40.000000)">
		<g id="gt_cherkassy_logo">
			<g transform="translate(375.000000, 40.000000)">
				<circle id="Oval" class="st0" cx="19.6" cy="5.5" r="5.4"/>
				<circle id="Oval_1_" class="st0" cx="33.1" cy="5.5" r="5.4"/>
				<circle id="Oval_2_" class="st0" cx="46.4" cy="5.5" r="5.4"/>
				<circle id="Oval_3_" class="st0" cx="19.6" cy="18.5" r="5.4"/>
				<circle id="Oval_4_" class="st0" cx="33.1" cy="18.5" r="5.4"/>
				<circle id="Oval_5_" class="st0" cx="46.4" cy="18.5" r="5.4"/>
				<circle id="Oval_6_" class="st0" cx="19.6" cy="31.3" r="5.4"/>
				<circle id="Oval_7_" class="st0" cx="33.1" cy="31.3" r="5.4"/>
				<circle id="Oval_8_" class="st0" cx="19.6" cy="44.2" r="5.4"/>
				<circle id="Oval_9_" class="st0" cx="33.1" cy="44.2" r="5.4"/>
				<circle id="Oval_10_" class="st1" cx="6.2" cy="18.5" r="5.4"/>
				<circle id="Oval_11_" class="st1" cx="6.2" cy="5.5" r="5.4"/>
				<g id="Group" transform="translate(60.204082, 0.000000)">
					<path id="Shape" class="st1" d="M8.4,21.5v-9.6c0-0.9-0.2-1.6-0.7-2.1C7.2,9.3,6.5,9,5.7,9S4.2,9.3,3.8,9.8
						c-0.5,0.5-0.7,1.2-0.7,2.1v9.5H0.7V0h2.4v8.5h0.1c0.4-0.6,0.9-1,1.5-1.3S6,6.6,6.7,6.6c0.6,0,1.1,0.1,1.6,0.3s0.9,0.5,1.3,0.9
						c0.4,0.4,0.6,0.8,0.9,1.4c0.2,0.5,0.3,1.1,0.3,1.8v10.3H8.4V21.5z"/>
					<path id="Shape_1_" class="st1" d="M16.4,8.7c0.4-0.8,0.9-1.3,1.5-1.5c0.6-0.3,1.2-0.4,2-0.4c0.6,0,1,0.1,1.3,0.3l-0.5,2.6
						c-0.5-0.2-0.9-0.3-1.4-0.3c-0.9,0-1.6,0.2-2.1,0.7s-0.8,1.3-0.8,2.4v9.1h-2.3V6.9h2.3V8.7L16.4,8.7z"/>
					<path id="Shape_2_" class="st1" d="M28,6.7c1.1,0,2,0.2,2.8,0.7c0.7,0.5,1.2,1,1.6,1.7c0.1,0.2,0.3,0.5,0.3,0.9
						c0.1,0.4,0.2,0.8,0.2,1.2c0.1,0.5,0.1,0.9,0.1,1.4v1.4v1c0,0.4-0.1,0.8-0.1,1.2s-0.1,0.8-0.2,1.2s-0.1,0.7-0.2,0.9
						c-0.2,0.6-0.4,1-0.8,1.4c-0.3,0.4-0.7,0.7-1.2,0.9c-0.4,0.2-0.9,0.4-1.4,0.5s-1,0.2-1.5,0.2c-1.1,0-2-0.2-2.8-0.7
						c-0.7-0.5-1.2-1.1-1.6-1.8c-0.3-0.5-0.4-1.2-0.5-2.1c-0.1-0.9-0.1-1.8-0.1-2.8s0-1.8,0.1-2.7c0.1-0.8,0.2-1.5,0.4-2
						c0.4-0.9,1-1.6,1.8-2.1C25.7,6.9,26.7,6.7,28,6.7z M27.9,8.9c-0.6,0-1.1,0.1-1.5,0.4s-0.8,0.7-1,1.2c-0.1,0.4-0.2,0.9-0.3,1.6
						c-0.1,0.7-0.1,1.5-0.1,2.4v1.8c0,0.6,0.1,1,0.3,1.4c0.2,0.5,0.5,0.9,0.9,1.2c0.4,0.3,0.9,0.4,1.5,0.4s1.1-0.1,1.6-0.4
						c0.5-0.3,0.8-0.8,1-1.4c0.1-0.3,0.2-0.7,0.2-1.4c0-0.6,0.1-1.4,0.1-2.2c0-0.7,0-1.3-0.1-1.9c0-0.6-0.1-1.1-0.2-1.4
						c-0.2-0.6-0.5-1-1-1.3C29,9.1,28.5,8.9,27.9,8.9z"/>
					<path id="Shape_3_" class="st1" d="M53.5,21.5h-2.3v-8.7c0-0.5,0-1-0.1-1.4c-0.1-0.4-0.2-0.8-0.4-1.1c-0.2-0.3-0.4-0.6-0.8-0.8
						c-0.3-0.2-0.7-0.3-1.2-0.3c-0.9,0-1.6,0.3-2,1c-0.4,0.6-0.6,1.5-0.6,2.7v8.8h-2.3V13c0-0.5,0-1-0.1-1.4
						c-0.1-0.4-0.2-0.8-0.4-1.1c-0.2-0.3-0.5-0.6-0.8-0.8c-0.3-0.2-0.7-0.3-1.2-0.3c-0.9,0-1.6,0.3-2,1c-0.4,0.7-0.6,1.6-0.6,2.8
						v8.7H36V7.1h2.4v1.5l0,0c0.8-1.1,1.9-1.7,3.4-1.7c0.8,0,1.5,0.2,2.1,0.5c0.6,0.3,1.1,0.8,1.4,1.3l0,0c0.6-0.6,1.2-1.1,1.8-1.4
						c0.6-0.3,1.4-0.4,2.2-0.4c0.6,0,1.1,0.1,1.6,0.3s0.9,0.5,1.3,0.9c0.4,0.4,0.7,0.8,0.9,1.4c0.2,0.5,0.3,1.1,0.3,1.8v10.1H53.5z"
						/>
					<path id="Shape_4_" class="st1" d="M63.8,20.4c-0.3,0.4-0.8,0.7-1.4,1c-0.6,0.2-1.3,0.3-2,0.3s-1.3-0.1-1.8-0.3
						c-0.5-0.2-1-0.5-1.3-0.9s-0.6-0.8-0.8-1.3s-0.2-1-0.2-1.6c0-1.3,0.4-2.3,1.2-3.3c0.8-0.8,2.1-1.3,3.9-1.3h2.7v-1.8
						c0-0.7-0.2-1.2-0.7-1.5C62.8,9.2,62,9,61.2,9c-0.6,0-1.1,0.1-1.6,0.3c-0.5,0.2-0.8,0.6-1.1,1.1c-0.3-0.2-0.6-0.4-0.9-0.5
						c-0.3-0.2-0.6-0.4-0.9-0.6c0.4-0.8,1-1.4,1.8-1.8c0.8-0.4,1.7-0.6,2.8-0.6c0.7,0,1.3,0.1,1.9,0.2s1.1,0.4,1.6,0.7
						c0.5,0.3,0.8,0.8,1.1,1.3c0.3,0.6,0.4,1.2,0.4,2.1v10.4H64v-1L63.8,20.4z M63.9,14.9H61c-0.8,0-1.4,0.2-1.9,0.5
						c-0.5,0.4-0.7,0.9-0.7,1.8c0,0.6,0.2,1.2,0.6,1.6c0.4,0.4,1.1,0.6,1.9,0.6c0.8,0,1.5-0.2,2-0.6c0.5-0.4,0.8-1,0.8-1.9v-2H63.9z
						"/>
					<path id="Shape_5_" class="st1" d="M76.6,20.2c-0.4,0.5-0.9,0.9-1.5,1.2c-0.5,0.2-1.1,0.4-1.8,0.4c-0.9,0-1.7-0.2-2.3-0.6
						s-1-0.9-1.3-1.6c-0.3-0.7-0.5-1.4-0.6-2.3s-0.1-1.8-0.1-2.9c0-0.9,0.1-1.8,0.2-2.8c0.1-0.9,0.3-1.7,0.6-2.4
						c0.3-0.7,0.8-1.3,1.4-1.7c0.6-0.4,1.4-0.7,2.4-0.7c0.6,0,1.1,0.1,1.6,0.3c0.5,0.2,1,0.6,1.4,1h0.1V0h2.3v21.4h-2.3L76.6,20.2
						L76.6,20.2L76.6,20.2z M74,9.1c-0.6,0-1.1,0.1-1.4,0.4c-0.4,0.3-0.6,0.6-0.8,1.1c-0.2,0.5-0.3,1-0.4,1.6s-0.1,1.2-0.1,1.9
						c0,0.7,0,1.4,0.1,2c0.1,0.6,0.2,1.2,0.4,1.6c0.2,0.5,0.5,0.8,0.8,1.1c0.3,0.3,0.8,0.4,1.4,0.4c0.7,0,1.2-0.2,1.6-0.6
						s0.6-0.9,0.8-1.4c0.2-0.6,0.2-1.2,0.2-1.8v-1.7c0-0.6,0-1.2-0.1-1.7c-0.1-0.6-0.2-1-0.4-1.5c-0.2-0.4-0.4-0.8-0.8-1
						C75.1,9.3,74.6,9.1,74,9.1z"/>
					<path id="Shape_6_" class="st1" d="M83.3,17.6c0.3,0.6,0.7,1.1,1.2,1.5c0.5,0.3,1.2,0.5,1.9,0.5c0.8,0,1.4-0.2,1.9-0.5
						c0.5-0.3,0.7-0.9,0.7-1.6c0-0.4-0.1-0.7-0.2-0.9c-0.1-0.2-0.3-0.4-0.6-0.6c-0.2-0.2-0.5-0.3-0.9-0.4c-0.3-0.1-0.7-0.2-1.1-0.3
						c-0.7-0.2-1.3-0.4-1.9-0.6s-1-0.5-1.4-0.8c-0.4-0.3-0.7-0.7-0.9-1.1c-0.2-0.4-0.3-1-0.3-1.6c0-1.3,0.4-2.3,1.2-3.1
						c0.8-0.7,2-1.1,3.5-1.1c1.3,0,2.3,0.2,3.1,0.7s1.2,1.2,1.6,2l-1.8,1.1C88.6,9.5,87.7,9,86.3,9c-0.9,0-1.5,0.2-1.8,0.6
						C84.2,10,84,10.4,84,10.9c0,0.3,0.1,0.6,0.3,0.8c0.2,0.2,0.4,0.4,0.7,0.5c0.3,0.1,0.6,0.3,1,0.4c0.4,0.1,0.8,0.2,1.2,0.3
						c0.7,0.2,1.3,0.3,1.8,0.6c0.5,0.2,0.9,0.5,1.3,0.8c0.3,0.3,0.6,0.7,0.8,1.2c0.2,0.5,0.2,1,0.2,1.7c0,1.3-0.4,2.3-1.3,3.2
						c-0.9,0.8-2.1,1.2-3.8,1.2c-1.2,0-2.3-0.3-3.2-0.8c-0.8-0.5-1.5-1.3-1.9-2.3L83.3,17.6z"/>
					<polygon id="Shape_7_" class="st1" points="102.7,21.5 98.8,14.4 96.4,17.6 96.4,21.5 94.1,21.5 94.1,0.1 96.4,0.1 96.4,14 
						96.5,14 101.7,6.9 104.5,6.9 100.3,12.6 105.3,21.6 102.7,21.6 					"/>
					<path id="Shape_8_" class="st1" d="M116.5,18.9c-0.4,0.8-1,1.5-1.7,2c-0.8,0.5-1.6,0.7-2.7,0.7c-1,0-1.8-0.1-2.6-0.4
						c-0.7-0.3-1.2-0.7-1.7-1.3c-0.4-0.6-0.8-1.3-1-2.3c-0.2-0.9-0.3-2-0.3-3.5c0-0.9,0.1-1.8,0.2-2.8s0.4-1.7,0.8-2.4
						c0.4-0.7,0.9-1.3,1.6-1.7c0.7-0.4,1.5-0.6,2.6-0.6c1.6,0,3,0.5,3.8,1.6c0.9,1,1.3,2.6,1.3,4.4v2.2h-8c0,0.6,0,1.2,0.1,1.8
						c0.1,0.6,0.2,1,0.4,1.4c0.2,0.4,0.5,0.7,0.9,1c0.4,0.2,0.9,0.3,1.5,0.3c0.5,0,1-0.2,1.4-0.5c0.4-0.3,0.8-0.7,1.1-1.2
						L116.5,18.9z M114.5,13.1c0-1.3-0.2-2.3-0.7-3.1c-0.5-0.7-1.1-1-2-1c-1,0-1.7,0.4-2.1,1.1c-0.4,0.7-0.6,1.7-0.6,3H114.5z"/>
					<polygon id="Shape_9_" class="st1" points="119.8,21.5 119.8,18.6 122.7,18.6 122.7,21.5 					"/>
					<path id="Shape_10_" class="st1" d="M129.8,21.5c-1,0-1.7-0.3-2.2-0.8c-0.5-0.5-0.7-1.3-0.7-2.3V8.1H125V7h1.8v-4h1.3v4h2.4v1
						h-2.4v10c0,0.7,0.1,1.3,0.3,1.7c0.2,0.4,0.7,0.6,1.5,0.6h0.8v1.1H129.8z"/>
					<path id="Shape_11_" class="st1" d="M141.1,10.4c-0.4,1.2-0.8,2.6-1.2,3.9c-0.4,1.3-0.8,2.6-1.2,3.9c-0.4,1.2-0.7,2.3-1,3.4
						h-1.3c-0.3-1-0.7-2.1-1.1-3.4c-0.4-1.2-0.8-2.6-1.2-3.9c-0.4-1.3-0.8-2.7-1.2-3.9C132.3,9.2,132,8,131.6,7h1.4l2.2,7.3l1.5,5.2
						h0.1c0.1-0.3,0.2-0.7,0.3-1.2c0.1-0.5,0.3-0.9,0.4-1.4s0.3-0.9,0.4-1.4c0.1-0.4,0.2-0.8,0.4-1.2c0.2-0.5,0.4-1.1,0.5-1.7
						c0.2-0.6,0.4-1.3,0.5-1.9c0.2-0.6,0.4-1.3,0.6-1.9c0.2-0.6,0.4-1.2,0.5-1.7h1.4C141.9,8,141.5,9.2,141.1,10.4z"/>
				</g>
				<rect id="Rectangle-path" x="60.8" y="25.9" class="st0" width="142.1" height="23.7"/>
				<g id="Group_1_" transform="translate(97.959184, 30.612245)">
					<path id="Shape_12_" class="st2" d="M2,0.9v4c0,0.5,0,1,0.1,1.3C2.2,6.5,2.3,6.8,2.6,7C2.8,7.2,3,7.4,3.3,7.6
						c0.3,0.1,0.6,0.1,1.1,0.1c0.3,0,0.6,0,1.1-0.2c0.4-0.1,0.8-0.3,1.2-0.5v-6h1.6v13.5H6.7v-6C6.3,8.6,5.9,8.8,5.4,8.9
						C5,9,4.5,9.1,4.1,9.1C3,9.1,2,8.8,1.4,8.2S0.5,6.5,0.5,5.1V1H2V0.9z"/>
					<polygon id="Shape_13_" class="st2" points="10.7,14.4 10.7,0.9 17.9,0.9 17.9,2.4 12.2,2.4 12.2,6.8 17,6.8 17,8.3 12.2,8.3 
						12.2,12.8 17.8,12.8 17.8,14.3 10.7,14.3 					"/>
					<path id="Shape_14_" class="st2" d="M27.2,4.9c0,0.5-0.1,1-0.2,1.5c-0.1,0.5-0.4,0.9-0.7,1.3s-0.7,0.7-1.2,0.9S24,9,23.4,9H21
						v5.4h-1.6V0.9h3.9c1.2,0,2.2,0.3,2.9,1C26.9,2.6,27.2,3.6,27.2,4.9z M25.6,4.9c0-0.8-0.2-1.4-0.5-1.8c-0.4-0.4-0.9-0.7-1.8-0.7
						h-2.1v5h2.2c0.4,0,0.8-0.1,1.1-0.2s0.5-0.3,0.7-0.6c0.2-0.2,0.3-0.5,0.4-0.8C25.6,5.6,25.6,5.2,25.6,4.9z"/>
					<path id="Shape_15_" class="st2" d="M28.8,14.4V0.9h1.6v5.9h1.4c0.2,0,0.4,0,0.6-0.1c0.2,0,0.4-0.1,0.6-0.3
						c0.2-0.1,0.4-0.3,0.6-0.6s0.3-0.6,0.5-1l1.1-3.9h1.5l-1,4c-0.2,0.6-0.4,1.2-0.7,1.6c-0.3,0.4-0.6,0.7-1,0.9
						C34.6,7.7,35,8,35.3,8.4c0.3,0.4,0.5,1,0.7,1.7l1.1,4.3h-1.7l-1-4.1c-0.1-0.4-0.3-0.8-0.4-1.1c-0.2-0.3-0.4-0.5-0.6-0.6
						c-0.2-0.1-0.4-0.2-0.6-0.3c-0.2,0-0.5-0.1-0.7-0.1h-1.5v6.1h-1.7V14.4z"/>
					<path id="Shape_16_" class="st2" d="M45.1,14.4l-0.8-3.1H40l-0.8,3.1h-1.6l3.9-13.5h1.4l4,13.5H45.1z M43,6.4l-0.7-3h-0.1
						l-0.7,3l-1,3.5H44L43,6.4z"/>
					<path id="Shape_17_" class="st2" d="M55.6,11.9c-0.2,0.8-0.7,1.5-1.3,1.9c-0.7,0.4-1.4,0.7-2.3,0.7c-0.6,0-1.1-0.1-1.6-0.3
						s-0.9-0.5-1.2-0.8c-0.3-0.3-0.6-0.8-0.8-1.2c-0.2-0.5-0.3-1-0.3-1.6V5c0-0.6,0.1-1.1,0.3-1.6c0.2-0.5,0.4-0.9,0.8-1.2
						c0.4-0.3,0.7-0.6,1.2-0.8s1-0.3,1.6-0.3c0.9,0,1.7,0.2,2.3,0.7c0.7,0.4,1.1,1.1,1.3,1.9l-1.5,0.6c-0.1-0.5-0.4-0.9-0.7-1.2
						c-0.4-0.3-0.8-0.4-1.4-0.4c-0.4,0-0.7,0.1-1,0.2c-0.3,0.1-0.5,0.3-0.7,0.5c-0.2,0.2-0.3,0.5-0.4,0.8c-0.1,0.3-0.2,0.6-0.2,0.9
						v5.7c0,0.3,0,0.6,0.2,0.9c0.1,0.3,0.2,0.5,0.4,0.8c0.2,0.2,0.4,0.4,0.7,0.5c0.3,0.1,0.6,0.2,1,0.2c0.6,0,1-0.1,1.4-0.4
						c0.4-0.3,0.6-0.7,0.8-1.2L55.6,11.9z"/>
					<polygon id="Shape_18_" class="st2" points="57.3,14.4 57.3,0.9 59,0.9 59,11.1 59.1,11.1 61.1,7 64.3,0.8 65.8,0.8 65.8,14.3 
						64.2,14.3 64.2,4.1 64.1,4.1 62.2,7.9 58.9,14.4 					"/>
				</g>
			</g>
		</g>
	</g>
</g>
</svg>
